<svg xmlns="http://www.w3.org/2000/svg" version="1.1" xmlns:xlink="http://www.w3.org/1999/xlink" width="90" height="120"><svg xmlns="http://www.w3.org/2000/svg" xmlns:xlink="http://www.w3.org/1999/xlink" zoomAndPan="magnify" viewBox="150 125 90 120" preserveAspectRatio="xMidYMid meet" version="1.0"><defs><clipPath id="SvgjsClipPath1041"><path d="M 152.183594 186.566406 L 222.878906 186.566406 L 222.878906 223.277344 L 152.183594 223.277344 Z M 152.183594 186.566406 " clip-rule="nonzero"></path></clipPath><clipPath id="SvgjsClipPath1040"><path d="M 185.09375 186.566406 L 214.378906 186.566406 C 217.488281 186.566406 220.34375 188.277344 221.8125 191.019531 C 223.277344 193.757812 223.117188 197.085938 221.394531 199.671875 L 214.394531 210.171875 C 208.933594 218.359375 199.746094 223.277344 189.90625 223.277344 L 160.621094 223.277344 C 157.511719 223.277344 154.65625 221.566406 153.1875 218.824219 C 151.722656 216.082031 151.882812 212.757812 153.605469 210.171875 L 160.605469 199.671875 C 166.066406 191.484375 175.253906 186.566406 185.09375 186.566406 Z M 185.09375 186.566406 " clip-rule="nonzero"></path></clipPath><clipPath id="SvgjsClipPath1039"><path d="M 0.183594 0.566406 L 70.878906 0.566406 L 70.878906 37.277344 L 0.183594 37.277344 Z M 0.183594 0.566406 " clip-rule="nonzero"></path></clipPath><clipPath id="SvgjsClipPath1038"><path d="M 33.09375 0.566406 L 62.378906 0.566406 C 65.488281 0.566406 68.34375 2.277344 69.8125 5.019531 C 71.277344 7.757812 71.117188 11.085938 69.394531 13.671875 L 62.394531 24.171875 C 56.933594 32.359375 47.746094 37.277344 37.90625 37.277344 L 8.621094 37.277344 C 5.511719 37.277344 2.65625 35.566406 1.1875 32.824219 C -0.277344 30.082031 -0.117188 26.757812 1.605469 24.171875 L 8.605469 13.671875 C 14.066406 5.484375 23.253906 0.566406 33.09375 0.566406 Z M 33.09375 0.566406 " clip-rule="nonzero"></path></clipPath><clipPath id="SvgjsClipPath1037"><rect x="0" width="71" y="0" height="38"></rect></clipPath><clipPath id="SvgjsClipPath1036"><path d="M 152 186.566406 L 222.867188 186.566406 L 222.867188 223.269531 L 152 223.269531 Z M 152 186.566406 " clip-rule="nonzero"></path></clipPath><clipPath id="SvgjsClipPath1035"><path d="M 185.089844 186.566406 L 214.371094 186.566406 C 217.480469 186.566406 220.335938 188.277344 221.804688 191.019531 C 223.269531 193.757812 223.109375 197.082031 221.382812 199.667969 L 214.386719 210.167969 C 208.929688 218.351562 199.742188 223.269531 189.902344 223.269531 L 160.621094 223.269531 C 157.511719 223.269531 154.65625 221.558594 153.191406 218.820312 C 151.722656 216.078125 151.886719 212.753906 153.609375 210.167969 L 160.609375 199.667969 C 166.066406 191.484375 175.253906 186.566406 185.089844 186.566406 Z M 185.089844 186.566406 " clip-rule="nonzero"></path></clipPath><clipPath id="SvgjsClipPath1034"><path d="M 152.183594 169.214844 L 222.878906 169.214844 L 222.878906 205.925781 L 152.183594 205.925781 Z M 152.183594 169.214844 " clip-rule="nonzero"></path></clipPath><clipPath id="SvgjsClipPath1033"><path d="M 185.09375 169.214844 L 214.378906 169.214844 C 217.488281 169.214844 220.34375 170.925781 221.8125 173.667969 C 223.277344 176.410156 223.117188 179.734375 221.394531 182.320312 L 214.394531 192.820312 C 208.933594 201.007812 199.746094 205.925781 189.90625 205.925781 L 160.621094 205.925781 C 157.511719 205.925781 154.65625 204.214844 153.1875 201.472656 C 151.722656 198.734375 151.882812 195.40625 153.605469 192.820312 L 160.605469 182.320312 C 166.066406 174.132812 175.253906 169.214844 185.09375 169.214844 Z M 185.09375 169.214844 " clip-rule="nonzero"></path></clipPath><clipPath id="SvgjsClipPath1032"><path d="M 0.183594 0.214844 L 70.878906 0.214844 L 70.878906 36.925781 L 0.183594 36.925781 Z M 0.183594 0.214844 " clip-rule="nonzero"></path></clipPath><clipPath id="SvgjsClipPath1031"><path d="M 33.09375 0.214844 L 62.378906 0.214844 C 65.488281 0.214844 68.34375 1.925781 69.8125 4.667969 C 71.277344 7.410156 71.117188 10.734375 69.394531 13.320312 L 62.394531 23.820312 C 56.933594 32.007812 47.746094 36.925781 37.90625 36.925781 L 8.621094 36.925781 C 5.511719 36.925781 2.65625 35.214844 1.1875 32.472656 C -0.277344 29.734375 -0.117188 26.40625 1.605469 23.820312 L 8.605469 13.320312 C 14.066406 5.132812 23.253906 0.214844 33.09375 0.214844 Z M 33.09375 0.214844 " clip-rule="nonzero"></path></clipPath><clipPath id="SvgjsClipPath1030"><rect x="0" width="71" y="0" height="37"></rect></clipPath><clipPath id="SvgjsClipPath1029"><path d="M 152 169.214844 L 222.867188 169.214844 L 222.867188 205.917969 L 152 205.917969 Z M 152 169.214844 " clip-rule="nonzero"></path></clipPath><clipPath id="SvgjsClipPath1028"><path d="M 185.089844 169.214844 L 214.371094 169.214844 C 217.480469 169.214844 220.335938 170.925781 221.804688 173.667969 C 223.269531 176.40625 223.109375 179.734375 221.382812 182.320312 L 214.386719 192.816406 C 208.929688 201.003906 199.742188 205.917969 189.902344 205.917969 L 160.621094 205.917969 C 157.511719 205.917969 154.65625 204.207031 153.191406 201.46875 C 151.722656 198.726562 151.886719 195.402344 153.609375 192.816406 L 160.609375 182.320312 C 166.066406 174.132812 175.253906 169.214844 185.089844 169.214844 Z M 185.089844 169.214844 " clip-rule="nonzero"></path></clipPath><clipPath id="SvgjsClipPath1027"><path d="M 152.183594 151.722656 L 222.878906 151.722656 L 222.878906 188.433594 L 152.183594 188.433594 Z M 152.183594 151.722656 " clip-rule="nonzero"></path></clipPath><clipPath id="SvgjsClipPath1026"><path d="M 185.09375 151.722656 L 214.378906 151.722656 C 217.488281 151.722656 220.34375 153.433594 221.8125 156.175781 C 223.277344 158.917969 223.117188 162.242188 221.394531 164.828125 L 214.394531 175.328125 C 208.933594 183.515625 199.746094 188.433594 189.90625 188.433594 L 160.621094 188.433594 C 157.511719 188.433594 154.65625 186.722656 153.1875 183.980469 C 151.722656 181.242188 151.882812 177.914062 153.605469 175.328125 L 160.605469 164.828125 C 166.066406 156.640625 175.253906 151.722656 185.09375 151.722656 Z M 185.09375 151.722656 " clip-rule="nonzero"></path></clipPath><clipPath id="SvgjsClipPath1025"><path d="M 0.183594 0.722656 L 70.878906 0.722656 L 70.878906 37.433594 L 0.183594 37.433594 Z M 0.183594 0.722656 " clip-rule="nonzero"></path></clipPath><clipPath id="SvgjsClipPath1024"><path d="M 33.09375 0.722656 L 62.378906 0.722656 C 65.488281 0.722656 68.34375 2.433594 69.8125 5.175781 C 71.277344 7.917969 71.117188 11.242188 69.394531 13.828125 L 62.394531 24.328125 C 56.933594 32.515625 47.746094 37.433594 37.90625 37.433594 L 8.621094 37.433594 C 5.511719 37.433594 2.65625 35.722656 1.1875 32.980469 C -0.277344 30.242188 -0.117188 26.914062 1.605469 24.328125 L 8.605469 13.828125 C 14.066406 5.640625 23.253906 0.722656 33.09375 0.722656 Z M 33.09375 0.722656 " clip-rule="nonzero"></path></clipPath><clipPath id="SvgjsClipPath1023"><rect x="0" width="71" y="0" height="38"></rect></clipPath><clipPath id="SvgjsClipPath1022"><path d="M 152 151.722656 L 222.867188 151.722656 L 222.867188 188.425781 L 152 188.425781 Z M 152 151.722656 " clip-rule="nonzero"></path></clipPath><clipPath id="SvgjsClipPath1021"><path d="M 185.089844 151.722656 L 214.371094 151.722656 C 217.480469 151.722656 220.335938 153.433594 221.804688 156.175781 C 223.269531 158.914062 223.109375 162.242188 221.382812 164.828125 L 214.386719 175.324219 C 208.929688 183.511719 199.742188 188.425781 189.902344 188.425781 L 160.621094 188.425781 C 157.511719 188.425781 154.65625 186.714844 153.191406 183.976562 C 151.722656 181.234375 151.886719 177.910156 153.609375 175.324219 L 160.609375 164.828125 C 166.066406 156.640625 175.253906 151.722656 185.089844 151.722656 Z M 185.089844 151.722656 " clip-rule="nonzero"></path></clipPath></defs><g clip-path="url(#75c8f6fa3e)"><g clip-path="url(#d92cc2a28b)"><g transform="matrix(1, 0, 0, 1, 152, 186)"><g clip-path="url(#0b3a7898aa)"><g clip-path="url(#ee617ebce8)"><g clip-path="url(#705dcc4ee1)"><path fill="#02d4d4" d="M -7.128906 0.566406 L 78.191406 0.566406 L 78.191406 37.277344 L -7.128906 37.277344 Z M -7.128906 0.566406 " fill-opacity="1" fill-rule="nonzero"></path></g></g></g></g></g></g><g clip-path="url(#3b7e6dbf2a)"><g clip-path="url(#7d4b728186)"><path stroke-linecap="butt" transform="matrix(0.75, 0, 0, 0.75, 144.874214, 186.566678)" fill="none" stroke-linejoin="miter" d="M 53.620843 -0.000362532 L 92.662512 -0.000362532 C 96.808346 -0.000362532 100.615638 2.280888 102.573971 5.937138 C 104.527096 9.58818 104.313555 14.020472 102.011471 17.468389 L 92.683346 31.46839 C 85.407303 42.379849 73.157303 48.937141 60.03751 48.937141 L 20.995841 48.937141 C 16.850007 48.937141 13.042715 46.655891 11.08959 43.004849 C 9.131257 39.348598 9.350007 34.916306 11.646882 31.46839 L 20.980216 17.468389 C 28.256258 6.55693 40.506259 -0.000362532 53.620843 -0.000362532 Z M 53.620843 -0.000362532 " stroke="#ffffff" stroke-width="12" stroke-opacity="1" stroke-miterlimit="4"></path></g></g><g clip-path="url(#607deb6a40)"><g clip-path="url(#640138dd03)"><g transform="matrix(1, 0, 0, 1, 152, 169)"><g clip-path="url(#95d9147784)"><g clip-path="url(#bba3589be1)"><g clip-path="url(#f9b0d1d184)"><path fill="#ffbc45" d="M -7.128906 0.214844 L 78.191406 0.214844 L 78.191406 36.925781 L -7.128906 36.925781 Z M -7.128906 0.214844 " fill-opacity="1" fill-rule="nonzero"></path></g></g></g></g></g></g><g clip-path="url(#69c8b9a25f)"><g clip-path="url(#754f50b6e5)"><path stroke-linecap="butt" transform="matrix(0.75, 0, 0, 0.75, 144.874214, 169.216321)" fill="none" stroke-linejoin="miter" d="M 53.620843 -0.00196952 L 92.662512 -0.00196952 C 96.808346 -0.00196952 100.615638 2.279281 102.573971 5.935531 C 104.527096 9.586573 104.313555 14.024073 102.011471 17.47199 L 92.683346 31.466783 C 85.407303 42.38345 73.157303 48.935534 60.03751 48.935534 L 20.995841 48.935534 C 16.850007 48.935534 13.042715 46.654284 11.08959 43.003242 C 9.131257 39.346991 9.350007 34.914699 11.646882 31.466783 L 20.980216 17.47199 C 28.256258 6.555323 40.506259 -0.00196952 53.620843 -0.00196952 Z M 53.620843 -0.00196952 " stroke="#ffffff" stroke-width="12" stroke-opacity="1" stroke-miterlimit="4"></path></g></g><g clip-path="url(#09cd939990)"><g clip-path="url(#8b1b9364d5)"><g transform="matrix(1, 0, 0, 1, 152, 151)"><g clip-path="url(#5c2db79b55)"><g clip-path="url(#1d423cb111)"><g clip-path="url(#6aa02d5b7f)"><path fill="#f91974" d="M -7.128906 0.722656 L 78.191406 0.722656 L 78.191406 37.433594 L -7.128906 37.433594 Z M -7.128906 0.722656 " fill-opacity="1" fill-rule="nonzero"></path></g></g></g></g></g></g><g clip-path="url(#dc9bc0f5db)"><g clip-path="url(#d7745e2942)"><path stroke-linecap="butt" transform="matrix(0.75, 0, 0, 0.75, 144.874214, 151.723936)" fill="none" stroke-linejoin="miter" d="M 53.620843 -0.00170692 L 92.662512 -0.00170692 C 96.808346 -0.00170692 100.615638 2.279543 102.573971 5.935793 C 104.527096 9.586835 104.313555 14.024336 102.011471 17.472253 L 92.683346 31.467045 C 85.407303 42.383713 73.157303 48.935796 60.03751 48.935796 L 20.995841 48.935796 C 16.850007 48.935796 13.042715 46.654546 11.08959 43.003504 C 9.131257 39.347254 9.350007 34.914962 11.646882 31.467045 L 20.980216 17.472253 C 28.256258 6.555585 40.506259 -0.00170692 53.620843 -0.00170692 Z M 53.620843 -0.00170692 " stroke="#ffffff" stroke-width="12" stroke-opacity="1" stroke-miterlimit="4"></path></g></g></svg><style>@media (prefers-color-scheme: light) { :root { filter: none; } }
@media (prefers-color-scheme: dark) { :root { filter: none; } }
</style></svg>